<mxfile host="app.diagrams.net" agent="Mozilla/5.0 (Windows NT 10.0; Win64; x64) AppleWebKit/537.36 (KHTML, like Gecko) Chrome/128.0.0.0 Safari/537.36" version="24.7.12">
  <diagram id="C5RBs43oDa-KdzZeNtuy" name="Page-1">
    <mxGraphModel dx="795" dy="533" grid="1" gridSize="10" guides="1" tooltips="1" connect="1" arrows="1" fold="1" page="1" pageScale="1" pageWidth="827" pageHeight="1169" math="0" shadow="0">
      <root>
        <mxCell id="WIyWlLk6GJQsqaUBKTNV-0" />
        <mxCell id="WIyWlLk6GJQsqaUBKTNV-1" parent="WIyWlLk6GJQsqaUBKTNV-0" />
        <mxCell id="16n1PnBZu0isyb9EBX7G-0" value="Power ON" style="rounded=0;whiteSpace=wrap;html=1;" vertex="1" parent="WIyWlLk6GJQsqaUBKTNV-1">
          <mxGeometry x="330" width="120" height="30" as="geometry" />
        </mxCell>
        <mxCell id="16n1PnBZu0isyb9EBX7G-6" value="Blink an LED once" style="rounded=1;whiteSpace=wrap;html=1;" vertex="1" parent="WIyWlLk6GJQsqaUBKTNV-1">
          <mxGeometry x="330" y="70" width="120" height="30" as="geometry" />
        </mxCell>
        <mxCell id="16n1PnBZu0isyb9EBX7G-10" value="uart_init" style="rounded=1;whiteSpace=wrap;html=1;" vertex="1" parent="WIyWlLk6GJQsqaUBKTNV-1">
          <mxGeometry x="330" y="140" width="120" height="30" as="geometry" />
        </mxCell>
        <mxCell id="16n1PnBZu0isyb9EBX7G-11" value="send adc value when conversion complete" style="rounded=1;whiteSpace=wrap;html=1;" vertex="1" parent="WIyWlLk6GJQsqaUBKTNV-1">
          <mxGeometry x="330" y="280" width="120" height="30" as="geometry" />
        </mxCell>
        <mxCell id="16n1PnBZu0isyb9EBX7G-12" value="blink led 5 times" style="rounded=1;whiteSpace=wrap;html=1;" vertex="1" parent="WIyWlLk6GJQsqaUBKTNV-1">
          <mxGeometry x="330" y="420" width="120" height="30" as="geometry" />
        </mxCell>
        <mxCell id="16n1PnBZu0isyb9EBX7G-13" value="timer_init" style="rounded=1;whiteSpace=wrap;html=1;" vertex="1" parent="WIyWlLk6GJQsqaUBKTNV-1">
          <mxGeometry x="330" y="350" width="120" height="30" as="geometry" />
        </mxCell>
        <mxCell id="16n1PnBZu0isyb9EBX7G-14" value="adc_init with interrupt" style="rounded=1;whiteSpace=wrap;html=1;" vertex="1" parent="WIyWlLk6GJQsqaUBKTNV-1">
          <mxGeometry x="330" y="210" width="120" height="30" as="geometry" />
        </mxCell>
        <mxCell id="16n1PnBZu0isyb9EBX7G-20" value="" style="endArrow=classic;html=1;rounded=0;" edge="1" parent="WIyWlLk6GJQsqaUBKTNV-1">
          <mxGeometry width="50" height="50" relative="1" as="geometry">
            <mxPoint x="396" y="50" as="sourcePoint" />
            <mxPoint x="396" y="70" as="targetPoint" />
            <Array as="points">
              <mxPoint x="396" y="30" />
            </Array>
          </mxGeometry>
        </mxCell>
        <mxCell id="16n1PnBZu0isyb9EBX7G-23" value="" style="endArrow=classic;html=1;rounded=0;" edge="1" parent="WIyWlLk6GJQsqaUBKTNV-1">
          <mxGeometry width="50" height="50" relative="1" as="geometry">
            <mxPoint x="396" y="330" as="sourcePoint" />
            <mxPoint x="396" y="350" as="targetPoint" />
            <Array as="points">
              <mxPoint x="396" y="310" />
            </Array>
          </mxGeometry>
        </mxCell>
        <mxCell id="16n1PnBZu0isyb9EBX7G-24" value="" style="endArrow=classic;html=1;rounded=0;" edge="1" parent="WIyWlLk6GJQsqaUBKTNV-1">
          <mxGeometry width="50" height="50" relative="1" as="geometry">
            <mxPoint x="396" y="260" as="sourcePoint" />
            <mxPoint x="396" y="280" as="targetPoint" />
            <Array as="points">
              <mxPoint x="396" y="240" />
            </Array>
          </mxGeometry>
        </mxCell>
        <mxCell id="16n1PnBZu0isyb9EBX7G-25" value="" style="endArrow=classic;html=1;rounded=0;" edge="1" parent="WIyWlLk6GJQsqaUBKTNV-1">
          <mxGeometry width="50" height="50" relative="1" as="geometry">
            <mxPoint x="396" y="190" as="sourcePoint" />
            <mxPoint x="396" y="210" as="targetPoint" />
            <Array as="points">
              <mxPoint x="396" y="170" />
            </Array>
          </mxGeometry>
        </mxCell>
        <mxCell id="16n1PnBZu0isyb9EBX7G-26" value="" style="endArrow=classic;html=1;rounded=0;" edge="1" parent="WIyWlLk6GJQsqaUBKTNV-1">
          <mxGeometry width="50" height="50" relative="1" as="geometry">
            <mxPoint x="396" y="120" as="sourcePoint" />
            <mxPoint x="396" y="140" as="targetPoint" />
            <Array as="points">
              <mxPoint x="396" y="100" />
            </Array>
          </mxGeometry>
        </mxCell>
        <mxCell id="16n1PnBZu0isyb9EBX7G-27" value="" style="endArrow=classic;html=1;rounded=0;" edge="1" parent="WIyWlLk6GJQsqaUBKTNV-1">
          <mxGeometry width="50" height="50" relative="1" as="geometry">
            <mxPoint x="396" y="400" as="sourcePoint" />
            <mxPoint x="396" y="420" as="targetPoint" />
            <Array as="points">
              <mxPoint x="396" y="380" />
            </Array>
          </mxGeometry>
        </mxCell>
      </root>
    </mxGraphModel>
  </diagram>
</mxfile>
